<svg id="visual" viewBox="0 0 900 600" width="900" height="600" xmlns="http://www.w3.org/2000/svg" xmlns:xlink="http://www.w3.org/1999/xlink" version="1.1"><rect x="0" y="0" width="900" height="600" fill="#1e4971"></rect><g transform="translate(799.9640102657308 -270.9463190150946)"><path d="M223.5 -193.7C382.7 -132.8 669 -150.6 823.5 -32.9C978.1 84.7 1000.8 337.9 896.9 517.8C793 697.8 562.4 804.7 323.4 894.1C84.4 983.5 -163 1055.6 -353.9 981.9C-544.7 908.3 -678.9 688.9 -732.5 479.4C-786 270 -758.9 70.5 -682.8 -78.6C-606.7 -227.7 -481.7 -326.4 -359.8 -393.9C-237.8 -461.4 -118.9 -497.7 -43.4 -446C32.1 -394.3 64.3 -254.6 223.5 -193.7" fill="#e8f1f8"></path></g></svg>